<svg width="57" height="57" viewBox="0 0 57 57" fill="none" xmlns="http://www.w3.org/2000/svg">
<path d="M28.5 0.0625C20.9861 0.153153 13.8054 3.17834 8.49189 8.49189C3.17834 13.8054 0.153153 20.9861 0.0625 28.5C0.153153 36.0139 3.17834 43.1946 8.49189 48.5081C13.8054 53.8217 20.9861 56.8468 28.5 56.9375C36.0139 56.8468 43.1946 53.8217 48.5081 48.5081C53.8217 43.1946 56.8468 36.0139 56.9375 28.5C56.8468 20.9861 53.8217 13.8054 48.5081 8.49189C43.1946 3.17834 36.0139 0.153153 28.5 0.0625ZM44.75 30.5312H30.5312V44.75H26.4688V30.5312H12.25V26.4688H26.4688V12.25H30.5312V26.4688H44.75V30.5312Z" fill="white"/>
</svg>
