<svg width="39" height="39" viewBox="0 0 39 39" fill="none" xmlns="http://www.w3.org/2000/svg">
<path d="M32.5 6.5H6.5C4.7125 6.5 3.26625 7.9625 3.26625 9.75L3.25 29.25C3.25 31.0375 4.7125 32.5 6.5 32.5H32.5C34.2875 32.5 35.75 31.0375 35.75 29.25V9.75C35.75 7.9625 34.2875 6.5 32.5 6.5ZM31.85 13.4062L20.3612 20.5888C19.8412 20.9138 19.1588 20.9138 18.6388 20.5888L7.15 13.4062C6.98706 13.3148 6.84437 13.1912 6.73057 13.043C6.61677 12.8948 6.53423 12.725 6.48794 12.544C6.44164 12.3629 6.43257 12.1744 6.46125 11.9897C6.48994 11.8051 6.5558 11.6282 6.65483 11.4697C6.75387 11.3113 6.88403 11.1746 7.03743 11.0679C7.19083 10.9612 7.36429 10.8867 7.54731 10.849C7.73032 10.8113 7.91909 10.8111 8.10218 10.8484C8.28527 10.8858 8.45888 10.9599 8.6125 11.0662L19.5 17.875L30.3875 11.0662C30.5411 10.9599 30.7147 10.8858 30.8978 10.8484C31.0809 10.8111 31.2697 10.8113 31.4527 10.849C31.6357 10.8867 31.8092 10.9612 31.9626 11.0679C32.116 11.1746 32.2461 11.3113 32.3452 11.4697C32.4442 11.6282 32.5101 11.8051 32.5387 11.9897C32.5674 12.1744 32.5584 12.3629 32.5121 12.544C32.4658 12.725 32.3832 12.8948 32.2694 13.043C32.1556 13.1912 32.0129 13.3148 31.85 13.4062Z" fill="#222222"/>
</svg>
