<svg width="58" height="58" viewBox="0 0 58 58" fill="none" xmlns="http://www.w3.org/2000/svg">
<path d="M52.6968 24.267H50.7502V24.1667H29.0002V33.8333H42.658C40.6654 39.4605 35.3113 43.5 29.0002 43.5C20.9925 43.5 14.5002 37.0076 14.5002 29C14.5002 20.9924 20.9925 14.5 29.0002 14.5C32.6965 14.5 36.0592 15.8944 38.6197 18.1721L45.4552 11.3366C41.1391 7.31405 35.3657 4.83334 29.0002 4.83334C15.6541 4.83334 4.8335 15.654 4.8335 29C4.8335 42.346 15.6541 53.1667 29.0002 53.1667C42.3462 53.1667 53.1668 42.346 53.1668 29C53.1668 27.3796 53.0001 25.7979 52.6968 24.267Z" fill="#FFC107"/>
<path d="M7.61963 17.7516L15.5596 23.5746C17.708 18.2555 22.9111 14.5 28.9999 14.5C32.6962 14.5 36.059 15.8944 38.6194 18.1721L45.455 11.3366C41.1388 7.31405 35.3654 4.83334 28.9999 4.83334C19.7175 4.83334 11.6675 10.0739 7.61963 17.7516Z" fill="#FF3D00"/>
<path d="M29.0002 53.1667C35.2425 53.1667 40.9144 50.7778 45.2028 46.893L37.7232 40.5638C35.2153 42.471 32.1509 43.5025 29.0002 43.5C22.7145 43.5 17.3773 39.492 15.3666 33.8986L7.48584 39.9705C11.4854 47.7968 19.6078 53.1667 29.0002 53.1667Z" fill="#4CAF50"/>
<path d="M52.6966 24.2669H50.75V24.1667H29V33.8333H42.6578C41.7047 36.5115 39.9878 38.8517 37.7193 40.5649L37.723 40.5625L45.2025 46.8918C44.6733 47.3727 53.1667 41.0833 53.1667 29C53.1667 27.3796 52.9999 25.7979 52.6966 24.2669Z" fill="#1976D2"/>
</svg>
