<svg width="42" height="42" viewBox="0 0 42 42" fill="none" xmlns="http://www.w3.org/2000/svg">
<path d="M21 29.75C21.9283 29.75 22.8185 29.3813 23.4749 28.7249C24.1313 28.0685 24.5 27.1783 24.5 26.25C24.5 25.3217 24.1313 24.4315 23.4749 23.7751C22.8185 23.1187 21.9283 22.75 21 22.75C20.0717 22.75 19.1815 23.1187 18.5251 23.7751C17.8687 24.4315 17.5 25.3217 17.5 26.25C17.5 27.1783 17.8687 28.0685 18.5251 28.7249C19.1815 29.3813 20.0717 29.75 21 29.75ZM31.5 14C32.4283 14 33.3185 14.3687 33.9749 15.0251C34.6313 15.6815 35 16.5717 35 17.5V35C35 35.9283 34.6313 36.8185 33.9749 37.4749C33.3185 38.1313 32.4283 38.5 31.5 38.5H10.5C9.57174 38.5 8.6815 38.1313 8.02513 37.4749C7.36875 36.8185 7 35.9283 7 35V17.5C7 16.5717 7.36875 15.6815 8.02513 15.0251C8.6815 14.3687 9.57174 14 10.5 14H12.25V10.5C12.25 8.17936 13.1719 5.95376 14.8128 4.31282C16.4538 2.67187 18.6794 1.75 21 1.75C22.1491 1.75 23.2869 1.97633 24.3485 2.41605C25.4101 2.85578 26.3747 3.5003 27.1872 4.31282C27.9997 5.12533 28.6442 6.08992 29.0839 7.15152C29.5237 8.21312 29.75 9.35093 29.75 10.5V14H31.5ZM21 5.25C19.6076 5.25 18.2723 5.80312 17.2877 6.78769C16.3031 7.77226 15.75 9.10761 15.75 10.5V14H26.25V10.5C26.25 9.10761 25.6969 7.77226 24.7123 6.78769C23.7277 5.80312 22.3924 5.25 21 5.25Z" fill="#222222"/>
</svg>
