<svg width="26" height="27" viewBox="0 0 26 27" fill="none" xmlns="http://www.w3.org/2000/svg">
<g clip-path="url(#clip0_1_35)">
<path d="M21.6667 6.75C21.9428 6.75032 22.2084 6.86011 22.4091 7.05695C22.6099 7.25379 22.7307 7.52282 22.7469 7.80907C22.7631 8.09532 22.6734 8.37718 22.4962 8.59706C22.319 8.81695 22.0676 8.95826 21.7934 8.99213L21.6667 9H21.5789L20.5833 21.375C20.5834 22.2359 20.2666 23.0642 19.6979 23.6905C19.1292 24.3169 18.3515 24.6939 17.524 24.7444L17.3333 24.75H8.66666C6.93549 24.75 5.52066 23.3449 5.42532 21.6562L5.41991 21.4684L4.41999 9H4.33332C4.0572 8.99968 3.79162 8.88989 3.59084 8.69305C3.39006 8.49621 3.26924 8.22718 3.25305 7.94093C3.23687 7.65468 3.32655 7.37282 3.50378 7.15294C3.681 6.93305 3.93239 6.79174 4.20657 6.75787L4.33332 6.75H21.6667ZM15.1667 2.25C15.7413 2.25 16.2924 2.48705 16.6987 2.90901C17.1051 3.33097 17.3333 3.90326 17.3333 4.5C17.333 4.78674 17.2273 5.06254 17.0377 5.27104C16.8482 5.47954 16.5891 5.60501 16.3135 5.62182C16.0378 5.63862 15.7664 5.54549 15.5547 5.36145C15.3429 5.17741 15.2069 4.91636 15.1742 4.63163L15.1667 4.5H10.8333L10.8257 4.63163C10.7931 4.91636 10.657 5.17741 10.4453 5.36145C10.2336 5.54549 9.96215 5.63862 9.6865 5.62182C9.41086 5.60501 9.15179 5.47954 8.96224 5.27104C8.77269 5.06254 8.66696 4.78674 8.66666 4.5C8.66648 3.93235 8.87293 3.38561 9.24461 2.96938C9.61629 2.55315 10.1257 2.2982 10.6708 2.25563L10.8333 2.25H15.1667Z" fill="#FF6347"/>
</g>
<defs>
<clipPath id="clip0_1_35">
<rect width="26" height="27" fill="white"/>
</clipPath>
</defs>
</svg>
