<svg width="36" height="36" viewBox="0 0 36 36" fill="none" xmlns="http://www.w3.org/2000/svg">
<path d="M32.4745 30.9375C32.3758 31.1086 32.2337 31.2506 32.0627 31.3493C31.8916 31.4481 31.6975 31.5 31.5 31.5H4.50001C4.30263 31.4998 4.10877 31.4477 3.93791 31.3489C3.76705 31.25 3.6252 31.108 3.52659 30.937C3.42799 30.766 3.37611 30.5721 3.37616 30.3747C3.37621 30.1773 3.42819 29.9834 3.52688 29.8125C5.6686 26.1098 8.96907 23.4548 12.8208 22.1963C10.9156 21.0621 9.43531 19.3338 8.60736 17.2769C7.77942 15.22 7.64956 12.9482 8.23773 10.8103C8.82591 8.6725 10.0996 6.78684 11.8632 5.44293C13.6268 4.09902 15.7827 3.37118 18 3.37118C20.2173 3.37118 22.3733 4.09902 24.1368 5.44293C25.9004 6.78684 27.1741 8.6725 27.7623 10.8103C28.3504 12.9482 28.2206 15.22 27.3927 17.2769C26.5647 19.3338 25.0845 21.0621 23.1792 22.1963C27.0309 23.4548 30.3314 26.1098 32.4731 29.8125C32.5721 29.9834 32.6243 30.1773 32.6246 30.3748C32.6248 30.5723 32.5731 30.7664 32.4745 30.9375Z" fill="#FF6347"/>
</svg>
